<svg xmlns="http://www.w3.org/2000/svg" width="432" height="108"><path d="M174 47.1h34.7v13.3H174v35.2h-15.4v-83h54.9v13.9H174v20.6zm47.2-34.6h29.6c11.1.1 14 .2 18 1.4a19.9 19.9 0 0114.6 18.9c0 3.6-1.2 8.1-3.5 11.3a15.6 15.6 0 01-10.3 6c9.2 1.6 17.8 9 17.8 21.9 0 9.5-4.8 18-14.8 21.5-5.3 1.9-9.4 2-18.8 2h-32.5v-83zm15.4 12.7v20.7h5.3l9.4-.1c3.9 0 7.8-.1 10.6-1.7a9.5 9.5 0 005.5-8.6c0-3.2-1.6-6.4-4.8-8.2-3.3-1.9-5-2-16.2-2.1h-9.8zm0 32.3v24.6h15.3c9.2 0 11.6 0 15.6-2.8 2.1-1.5 3.8-4.7 3.8-8.7 0-1.9-.4-4.1-1.5-6.2-3.8-6.7-12.5-6.7-17.8-6.7l-15.4-.2zm59.4-45h16c6.4 0 16.5.9 16.5 14.5v12.9c0 3.4 0 12.5-11.6 14.7l15.3 40.9H326l-15.2-40.4h-9v40.4H296v-83zm5.8 4.9v32.7h10.5c6.5 0 10.1-2.6 10.1-8.8V28.5c0-9.5-4.1-11.1-9.8-11.1h-10.8zm35.9-4.9h29.4v5.2h-23.7v32h19.4v5h-19.5v35.6H367v5.2h-29.3v-83zm37.9 0H405v5.2h-23.6v32h20.8v5h-20.8v40.8h-5.8v-83z" fill="#58595b"/><path d="M144.9 59.2V42a37.5 37.5 0 00-26.6-27.5c-19 3.1-30.6 9.3-40.5 14.6a37.3 37.3 0 0013.6 54.8h10.8c6.8 0 13 .8 18.5 2.1a37.6 37.6 0 0024.2-26.8z" fill="#fff"/><path d="M144.9 41.9v9.4l-.8.6c-.5.4-1.1.6-1.8.6s-1.3-.2-1.8-.5l-9.5-6.7a3 3 0 01-1.1-1.6 3 3 0 010-1.9l3.8-11c.2-.6.6-1.1 1.1-1.5.5-.4 1.2-.5 1.8-.5h2.2A37.6 37.6 0 00120 15.1l.7 2a3 3 0 010 1.9c-.2.6-.6 1.2-1 1.5l-9.3 7a3 3 0 01-3.6 0l-9.3-7c-.1-.1-.3-.2-.3-.4 6-2.2 12.9-4.2 21.3-5.6 7.6-1.2 16.3-2 26.5-2l-.1 29.4zm-26.4 19.2l4.4-13.2a3 3 0 000-1.9 4 4 0 00-1-1.5l-11.5-8.7c-.5-.4-1.1-.6-1.8-.6s-1.3.2-1.8.6l-11.6 8.7c-.5.4-.9.9-1.1 1.5-.2.6-.2 1.3 0 1.8L98.4 61c.2.6.6 1.1 1.1 1.5a3 3 0 001.8.6h14.3a3 3 0 001.8-.6 3 3 0 001.1-1.4zm19.5 9.6c-.2-.6-.6-1.1-1.1-1.5a3 3 0 00-1.8-.6l-11.6-.2a3 3 0 00-1.8.6c-.6.4-1 .9-1.1 1.6l-3.5 11.1c-.2.6-.2 1.2 0 1.8.2.7.6 1.2 1.1 1.5l1 .8 1.4.3c14.9 3.3 24.2 9.5 24.2 9.5V59.2a38 38 0 01-6.3 13.5l-.5-2zm-41.7-.3a3 3 0 00-1.1-1.6c-.6-.4-1.2-.6-1.8-.6l-11.6.2c-.6 0-1.2.2-1.8.6-.5.4-.9.9-1 1.5l-.7 2.1A36.9 36.9 0 0171 50.5v-.1l1.8 1.3c.5.4 1.1.6 1.8.6s1.3-.2 1.8-.5l9.5-6.6a3 3 0 001.1-1.6 3 3 0 000-1.9l-3.7-11c-.2-.6-.6-1.1-1.1-1.5a3 3 0 00-1.8-.6h-1.7l-.9.5c-9.1 4.8-16.6 8.8-27 8.8C34.8 37.9 27 31 27 31c9.8 47.7 42.3 52.5 64.4 52.9h7.9l.3-.6a3 3 0 000-1.9l-3.3-11z" fill="#026937"/></svg>